<mxfile host="app.diagrams.net" modified="2021-09-30T03:09:17.379Z" agent="5.0 (Windows NT 10.0; Win64; x64) AppleWebKit/537.36 (KHTML, like Gecko) Chrome/94.0.4606.61 Safari/537.36 Edg/94.0.992.31" etag="hHdBBb0-DNaUmO4WWtLX" version="15.3.8" type="github">
  <diagram id="C5RBs43oDa-KdzZeNtuy" name="Page-1">
    <mxGraphModel dx="2249" dy="762" grid="1" gridSize="10" guides="1" tooltips="1" connect="1" arrows="1" fold="1" page="1" pageScale="1" pageWidth="827" pageHeight="1169" math="0" shadow="0">
      <root>
        <mxCell id="WIyWlLk6GJQsqaUBKTNV-0" />
        <mxCell id="WIyWlLk6GJQsqaUBKTNV-1" parent="WIyWlLk6GJQsqaUBKTNV-0" />
        <mxCell id="UyuXijGocPgXr72VuJAN-40" value="" style="edgeStyle=elbowEdgeStyle;shape=flexArrow;rounded=0;orthogonalLoop=1;jettySize=auto;html=1;" edge="1" parent="WIyWlLk6GJQsqaUBKTNV-1" source="WIyWlLk6GJQsqaUBKTNV-3" target="UyuXijGocPgXr72VuJAN-4">
          <mxGeometry relative="1" as="geometry" />
        </mxCell>
        <mxCell id="WIyWlLk6GJQsqaUBKTNV-3" value="编码器" style="rounded=1;whiteSpace=wrap;html=1;fontSize=12;glass=0;strokeWidth=1;shadow=0;" parent="WIyWlLk6GJQsqaUBKTNV-1" vertex="1">
          <mxGeometry x="160" y="190" width="120" height="40" as="geometry" />
        </mxCell>
        <mxCell id="WIyWlLk6GJQsqaUBKTNV-11" value="收料装置收整产品" style="rounded=1;whiteSpace=wrap;html=1;fontSize=12;glass=0;strokeWidth=1;shadow=0;" parent="WIyWlLk6GJQsqaUBKTNV-1" vertex="1">
          <mxGeometry x="160" y="710" width="120" height="40" as="geometry" />
        </mxCell>
        <mxCell id="UyuXijGocPgXr72VuJAN-41" value="" style="edgeStyle=elbowEdgeStyle;shape=flexArrow;rounded=0;orthogonalLoop=1;jettySize=auto;html=1;" edge="1" parent="WIyWlLk6GJQsqaUBKTNV-1" source="UyuXijGocPgXr72VuJAN-4" target="UyuXijGocPgXr72VuJAN-9">
          <mxGeometry relative="1" as="geometry" />
        </mxCell>
        <mxCell id="UyuXijGocPgXr72VuJAN-4" value="光纤传感器识别到产品" style="whiteSpace=wrap;html=1;shadow=0;strokeWidth=1;spacing=6;spacingTop=-4;" vertex="1" parent="WIyWlLk6GJQsqaUBKTNV-1">
          <mxGeometry x="150" y="300" width="130" height="60" as="geometry" />
        </mxCell>
        <mxCell id="UyuXijGocPgXr72VuJAN-14" value="" style="edgeStyle=orthogonalEdgeStyle;shape=flexArrow;rounded=0;orthogonalLoop=1;jettySize=auto;html=1;" edge="1" parent="WIyWlLk6GJQsqaUBKTNV-1" source="UyuXijGocPgXr72VuJAN-9" target="UyuXijGocPgXr72VuJAN-13">
          <mxGeometry relative="1" as="geometry" />
        </mxCell>
        <mxCell id="UyuXijGocPgXr72VuJAN-9" value="相机拍照" style="whiteSpace=wrap;html=1;" vertex="1" parent="WIyWlLk6GJQsqaUBKTNV-1">
          <mxGeometry x="160" y="430" width="120" height="60" as="geometry" />
        </mxCell>
        <mxCell id="UyuXijGocPgXr72VuJAN-17" value="" style="edgeStyle=orthogonalEdgeStyle;shape=flexArrow;rounded=0;orthogonalLoop=1;jettySize=auto;html=1;" edge="1" parent="WIyWlLk6GJQsqaUBKTNV-1" source="UyuXijGocPgXr72VuJAN-13" target="WIyWlLk6GJQsqaUBKTNV-11">
          <mxGeometry relative="1" as="geometry" />
        </mxCell>
        <mxCell id="UyuXijGocPgXr72VuJAN-21" value="" style="edgeStyle=orthogonalEdgeStyle;shape=flexArrow;rounded=0;orthogonalLoop=1;jettySize=auto;html=1;" edge="1" parent="WIyWlLk6GJQsqaUBKTNV-1" source="UyuXijGocPgXr72VuJAN-13" target="UyuXijGocPgXr72VuJAN-20">
          <mxGeometry relative="1" as="geometry" />
        </mxCell>
        <mxCell id="UyuXijGocPgXr72VuJAN-13" value="检测系统运算" style="rhombus;whiteSpace=wrap;html=1;" vertex="1" parent="WIyWlLk6GJQsqaUBKTNV-1">
          <mxGeometry x="157.5" y="560" width="125" height="80" as="geometry" />
        </mxCell>
        <mxCell id="UyuXijGocPgXr72VuJAN-19" value="OK" style="rounded=0;whiteSpace=wrap;html=1;" vertex="1" parent="WIyWlLk6GJQsqaUBKTNV-1">
          <mxGeometry x="240" y="650" width="70" height="30" as="geometry" />
        </mxCell>
        <mxCell id="UyuXijGocPgXr72VuJAN-24" value="" style="edgeStyle=orthogonalEdgeStyle;shape=flexArrow;rounded=0;orthogonalLoop=1;jettySize=auto;html=1;" edge="1" parent="WIyWlLk6GJQsqaUBKTNV-1" source="UyuXijGocPgXr72VuJAN-20" target="UyuXijGocPgXr72VuJAN-23">
          <mxGeometry relative="1" as="geometry" />
        </mxCell>
        <mxCell id="UyuXijGocPgXr72VuJAN-20" value="执行吹废联动" style="whiteSpace=wrap;html=1;" vertex="1" parent="WIyWlLk6GJQsqaUBKTNV-1">
          <mxGeometry x="-70" y="570" width="120" height="60" as="geometry" />
        </mxCell>
        <mxCell id="UyuXijGocPgXr72VuJAN-22" value="NG" style="rounded=0;whiteSpace=wrap;html=1;" vertex="1" parent="WIyWlLk6GJQsqaUBKTNV-1">
          <mxGeometry x="90" y="555" width="50" height="30" as="geometry" />
        </mxCell>
        <mxCell id="UyuXijGocPgXr72VuJAN-23" value="删除NG信号" style="whiteSpace=wrap;html=1;" vertex="1" parent="WIyWlLk6GJQsqaUBKTNV-1">
          <mxGeometry x="-70" y="710" width="120" height="60" as="geometry" />
        </mxCell>
        <mxCell id="UyuXijGocPgXr72VuJAN-25" value="吹废完成" style="rounded=0;whiteSpace=wrap;html=1;" vertex="1" parent="WIyWlLk6GJQsqaUBKTNV-1">
          <mxGeometry x="-110" y="645" width="80" height="40" as="geometry" />
        </mxCell>
        <mxCell id="UyuXijGocPgXr72VuJAN-33" value="" style="endArrow=classic;html=1;" edge="1" parent="WIyWlLk6GJQsqaUBKTNV-1">
          <mxGeometry width="50" height="50" relative="1" as="geometry">
            <mxPoint x="-140" y="570" as="sourcePoint" />
            <mxPoint x="-80" y="600" as="targetPoint" />
            <Array as="points">
              <mxPoint x="-115" y="570" />
            </Array>
          </mxGeometry>
        </mxCell>
        <mxCell id="UyuXijGocPgXr72VuJAN-35" value="" style="endArrow=classic;html=1;" edge="1" parent="WIyWlLk6GJQsqaUBKTNV-1">
          <mxGeometry width="50" height="50" relative="1" as="geometry">
            <mxPoint x="70" y="530" as="sourcePoint" />
            <mxPoint x="190" y="570" as="targetPoint" />
            <Array as="points">
              <mxPoint x="145" y="530" />
            </Array>
          </mxGeometry>
        </mxCell>
        <mxCell id="UyuXijGocPgXr72VuJAN-36" value="" style="endArrow=classic;html=1;" edge="1" parent="WIyWlLk6GJQsqaUBKTNV-1">
          <mxGeometry width="50" height="50" relative="1" as="geometry">
            <mxPoint x="85" y="180" as="sourcePoint" />
            <mxPoint x="145" y="210" as="targetPoint" />
            <Array as="points">
              <mxPoint x="110" y="180" />
            </Array>
          </mxGeometry>
        </mxCell>
        <mxCell id="UyuXijGocPgXr72VuJAN-37" value="" style="endArrow=classic;html=1;" edge="1" parent="WIyWlLk6GJQsqaUBKTNV-1">
          <mxGeometry width="50" height="50" relative="1" as="geometry">
            <mxPoint x="-140" y="720" as="sourcePoint" />
            <mxPoint x="-80" y="750" as="targetPoint" />
            <Array as="points">
              <mxPoint x="-115" y="720" />
            </Array>
          </mxGeometry>
        </mxCell>
        <mxCell id="UyuXijGocPgXr72VuJAN-38" value="" style="endArrow=classic;html=1;" edge="1" parent="WIyWlLk6GJQsqaUBKTNV-1">
          <mxGeometry width="50" height="50" relative="1" as="geometry">
            <mxPoint x="97.5" y="440" as="sourcePoint" />
            <mxPoint x="157.5" y="470" as="targetPoint" />
            <Array as="points">
              <mxPoint x="122.5" y="440" />
            </Array>
          </mxGeometry>
        </mxCell>
        <mxCell id="UyuXijGocPgXr72VuJAN-39" value="" style="endArrow=classic;html=1;" edge="1" parent="WIyWlLk6GJQsqaUBKTNV-1">
          <mxGeometry width="50" height="50" relative="1" as="geometry">
            <mxPoint x="85" y="310" as="sourcePoint" />
            <mxPoint x="145" y="340" as="targetPoint" />
            <Array as="points">
              <mxPoint x="110" y="310" />
            </Array>
          </mxGeometry>
        </mxCell>
        <mxCell id="UyuXijGocPgXr72VuJAN-42" value="S001" style="text;html=1;resizable=0;autosize=1;align=center;verticalAlign=middle;points=[];fillColor=none;strokeColor=none;rounded=0;" vertex="1" parent="WIyWlLk6GJQsqaUBKTNV-1">
          <mxGeometry x="40" y="170" width="40" height="20" as="geometry" />
        </mxCell>
        <mxCell id="UyuXijGocPgXr72VuJAN-43" value="S002" style="text;html=1;resizable=0;autosize=1;align=center;verticalAlign=middle;points=[];fillColor=none;strokeColor=none;rounded=0;" vertex="1" parent="WIyWlLk6GJQsqaUBKTNV-1">
          <mxGeometry x="40" y="300" width="40" height="20" as="geometry" />
        </mxCell>
        <mxCell id="UyuXijGocPgXr72VuJAN-44" value="S003" style="text;html=1;resizable=0;autosize=1;align=center;verticalAlign=middle;points=[];fillColor=none;strokeColor=none;rounded=0;" vertex="1" parent="WIyWlLk6GJQsqaUBKTNV-1">
          <mxGeometry x="50" y="430" width="40" height="20" as="geometry" />
        </mxCell>
        <mxCell id="UyuXijGocPgXr72VuJAN-45" value="S004" style="text;html=1;resizable=0;autosize=1;align=center;verticalAlign=middle;points=[];fillColor=none;strokeColor=none;rounded=0;" vertex="1" parent="WIyWlLk6GJQsqaUBKTNV-1">
          <mxGeometry x="30" y="520" width="40" height="20" as="geometry" />
        </mxCell>
        <mxCell id="UyuXijGocPgXr72VuJAN-46" value="S005" style="text;html=1;resizable=0;autosize=1;align=center;verticalAlign=middle;points=[];fillColor=none;strokeColor=none;rounded=0;" vertex="1" parent="WIyWlLk6GJQsqaUBKTNV-1">
          <mxGeometry x="-180" y="560" width="40" height="20" as="geometry" />
        </mxCell>
        <mxCell id="UyuXijGocPgXr72VuJAN-47" value="S006" style="text;html=1;resizable=0;autosize=1;align=center;verticalAlign=middle;points=[];fillColor=none;strokeColor=none;rounded=0;" vertex="1" parent="WIyWlLk6GJQsqaUBKTNV-1">
          <mxGeometry x="-180" y="710" width="40" height="20" as="geometry" />
        </mxCell>
      </root>
    </mxGraphModel>
  </diagram>
</mxfile>
